<svg viewBox="0 0 380 380" xmlns="http://www.w3.org/2000/svg">
    <path d="M 272 8 L 164 8 L 272 194 L 164 380 L 272 380 L 380 194 Z" fill="#e5a00d"/>
    <g transform="matrix(0.1, 0, 0, -0.1, -392.86731, 885.517517)" fill="#000000" stroke="none">
        <path d="M 5580.02 8843.754 C 5446.689 8823.533 5281.132 8778.037 5186.979 8735.068 C 5087.771 8690.203 4952.544 8621.958 4924.109 8602.369 C 4906.416 8590.363 4874.189 8569.51 4851.44 8556.24 C 4806.576 8529.069 4620.797 8389.419 4535.491 8318.646 C 4393.314 8200.481 4235.971 8038.083 4144.346 7914.863 C 4124.757 7888.955 4105.8 7864.311 4102.008 7859.888 C 4083.683 7840.299 3991.426 7682.324 3966.782 7628.613 C 3928.868 7545.202 3918.126 7459.896 3939.61 7406.184 C 3944.666 7392.283 3949.089 7374.589 3949.089 7366.375 C 3949.089 7349.945 4007.224 7295.602 4024.917 7295.602 C 4044.506 7295.602 4043.874 7308.24 4021.757 7330.357 C 4009.751 7342.363 4000.905 7353.105 4002.8 7354.369 C 4005.96 7358.16 3990.794 7392.283 3983.211 7397.97 C 3979.42 7400.497 3979.42 7419.454 3984.475 7449.785 C 4000.273 7550.889 4072.309 7684.22 4180.996 7813.759 C 4228.388 7870.63 4359.191 7997.642 4407.847 8034.292 C 4433.123 8053.249 4453.344 8070.942 4453.344 8073.47 C 4453.344 8075.997 4469.774 8088.635 4489.994 8101.905 C 4509.583 8115.175 4551.92 8144.874 4583.515 8168.886 C 4615.11 8192.266 4673.245 8232.076 4713.055 8256.72 C 4752.864 8281.364 4786.355 8304.113 4788.251 8306.008 C 4792.042 8311.063 4900.097 8371.094 5005.624 8426.701 C 5082.715 8467.142 5176.236 8510.112 5249.537 8538.547 C 5272.285 8546.762 5293.77 8556.872 5296.929 8559.4 C 5306.408 8566.982 5412.566 8600.473 5486.499 8618.798 C 5597.081 8645.97 5677.333 8656.712 5767.695 8656.712 C 5892.811 8656.08 5964.847 8634.596 6046.994 8572.038 C 6143.042 8498.737 6182.852 8445.658 6252.361 8297.162 C 6323.134 8146.77 6371.158 7957.832 6387.587 7766.367 C 6396.434 7664.631 6385.692 7591.331 6352.201 7519.294 C 6313.023 7433.988 6216.975 7355.001 6074.797 7290.547 C 5950.945 7234.308 5838.467 7200.817 5518.094 7125.621 C 5386.027 7094.026 5149.697 7030.837 5088.402 7009.984 C 5057.439 6999.242 5010.679 6979.653 4984.771 6965.751 C 4931.06 6936.684 4927.268 6937.947 4927.9 6992.291 C 4927.9 7011.248 4917.79 7073.806 4905.152 7131.308 C 4892.514 7188.811 4879.244 7251.369 4875.453 7270.326 C 4871.661 7289.283 4866.606 7306.344 4864.71 7308.24 C 4862.815 7310.136 4844.49 7377.749 4823.637 7459.264 C 4788.882 7599.545 4739.594 7760.68 4726.956 7777.741 C 4723.797 7782.164 4715.582 7799.857 4709.263 7816.919 C 4689.674 7870.63 4672.613 7892.746 4649.865 7894.01 C 4626.484 7895.906 4623.957 7883.9 4642.914 7859.888 C 4661.239 7835.876 4671.981 7794.17 4692.834 7655.784 C 4715.582 7506.024 4721.269 7444.098 4737.699 7188.179 C 4744.65 7078.861 4753.496 6959.432 4756.656 6922.782 C 4760.447 6886.132 4762.975 6852.009 4762.975 6846.322 C 4762.975 6841.267 4742.122 6822.942 4717.478 6805.881 C 4615.11 6738.267 4400.265 6551.857 4385.731 6518.367 C 4378.78 6503.201 4379.412 6498.146 4390.786 6484.244 C 4411.007 6458.336 4407.847 6457.704 4595.521 6535.428 C 4616.374 6544.275 4636.595 6553.753 4639.754 6556.281 C 4643.546 6558.808 4670.085 6570.814 4699.785 6582.188 C 4729.484 6592.931 4760.447 6608.096 4769.294 6614.415 C 4777.508 6621.366 4785.723 6624.526 4786.355 6621.366 C 4786.987 6618.839 4797.729 6535.428 4810.367 6436.22 C 4822.373 6337.012 4842.594 6182.197 4855.232 6091.835 C 4867.87 6001.473 4878.612 5921.854 4879.876 5914.903 C 4888.091 5844.131 4928.532 5590.739 4943.066 5516.807 C 4962.655 5415.703 4994.25 5296.906 5007.519 5271.63 C 5012.575 5260.888 5017.63 5245.091 5018.894 5236.244 C 5023.949 5192.011 5101.04 5176.214 5135.163 5212.864 C 5171.813 5252.042 5169.917 5331.029 5122.525 5715.855 C 5094.09 5947.762 5035.323 6361.656 5028.372 6376.189 C 5025.213 6383.14 5013.838 6452.649 5003.096 6531.005 C 4992.354 6609.36 4982.243 6677.605 4980.348 6682.66 C 4978.452 6690.243 4989.194 6696.562 5026.476 6707.936 C 5125.684 6738.267 5216.678 6765.439 5293.77 6786.924 C 5337.371 6798.93 5377.812 6812.2 5384.131 6815.359 C 5390.45 6819.15 5398.033 6820.414 5401.192 6818.519 C 5403.72 6816.623 5407.511 6817.255 5408.775 6820.414 C 5409.407 6822.942 5467.542 6840.635 5537.051 6858.96 C 5689.971 6900.034 5808.768 6936.684 5845.418 6953.113 C 5859.952 6960.064 5901.657 6977.757 5938.307 6992.291 C 6007.184 7020.094 6115.871 7072.542 6121.558 7080.757 C 6123.454 7083.284 6144.938 7097.818 6168.95 7112.352 C 6285.852 7183.124 6438.139 7342.995 6471.63 7430.197 C 6477.949 7446.626 6484.9 7459.896 6488.059 7459.896 C 6491.219 7459.896 6499.433 7477.589 6506.384 7499.705 C 6553.777 7643.146 6556.936 7801.753 6516.495 7996.378 C 6496.274 8091.795 6457.096 8227.653 6443.826 8246.61 C 6441.931 8250.401 6429.924 8276.941 6418.55 8306.64 C 6392.642 8373.621 6333.244 8498.105 6322.502 8509.48 C 6317.447 8514.535 6305.44 8532.86 6295.962 8549.921 C 6280.164 8577.093 6237.827 8635.228 6211.288 8666.822 C 6204.337 8674.405 6203.705 8675.037 6207.496 8666.822 C 6210.024 8661.767 6196.754 8671.878 6177.797 8689.571 C 6134.828 8730.644 6040.675 8793.202 5995.178 8810.895 C 5883.332 8855.128 5734.836 8866.502 5580.02 8843.754 Z" style="paint-order: fill; fill: rgb(254, 255, 181);"/>
    </g>
    <g transform="matrix(0.1, 0, 0, -0.1, -389.86731, 887.517517)" fill="#000000" stroke="none">
        <path d="M 5580.02 8843.754 C 5446.689 8823.533 5281.132 8778.037 5186.979 8735.068 C 5087.771 8690.203 4952.544 8621.958 4924.109 8602.369 C 4906.416 8590.363 4874.189 8569.51 4851.44 8556.24 C 4806.576 8529.069 4620.797 8389.419 4535.491 8318.646 C 4393.314 8200.481 4235.971 8038.083 4144.346 7914.863 C 4124.757 7888.955 4105.8 7864.311 4102.008 7859.888 C 4083.683 7840.299 3991.426 7682.324 3966.782 7628.613 C 3928.868 7545.202 3918.126 7459.896 3939.61 7406.184 C 3944.666 7392.283 3949.089 7374.589 3949.089 7366.375 C 3949.089 7349.945 4007.224 7295.602 4024.917 7295.602 C 4044.506 7295.602 4043.874 7308.24 4021.757 7330.357 C 4009.751 7342.363 4000.905 7353.105 4002.8 7354.369 C 4005.96 7358.16 3990.794 7392.283 3983.211 7397.97 C 3979.42 7400.497 3979.42 7419.454 3984.475 7449.785 C 4000.273 7550.889 4072.309 7684.22 4180.996 7813.759 C 4228.388 7870.63 4359.191 7997.642 4407.847 8034.292 C 4433.123 8053.249 4453.344 8070.942 4453.344 8073.47 C 4453.344 8075.997 4469.774 8088.635 4489.994 8101.905 C 4509.583 8115.175 4551.92 8144.874 4583.515 8168.886 C 4615.11 8192.266 4673.245 8232.076 4713.055 8256.72 C 4752.864 8281.364 4786.355 8304.113 4788.251 8306.008 C 4792.042 8311.063 4900.097 8371.094 5005.624 8426.701 C 5082.715 8467.142 5176.236 8510.112 5249.537 8538.547 C 5272.285 8546.762 5293.77 8556.872 5296.929 8559.4 C 5306.408 8566.982 5412.566 8600.473 5486.499 8618.798 C 5597.081 8645.97 5677.333 8656.712 5767.695 8656.712 C 5892.811 8656.08 5964.847 8634.596 6046.994 8572.038 C 6143.042 8498.737 6182.852 8445.658 6252.361 8297.162 C 6323.134 8146.77 6371.158 7957.832 6387.587 7766.367 C 6396.434 7664.631 6385.692 7591.331 6352.201 7519.294 C 6313.023 7433.988 6216.975 7355.001 6074.797 7290.547 C 5950.945 7234.308 5838.467 7200.817 5518.094 7125.621 C 5386.027 7094.026 5149.697 7030.837 5088.402 7009.984 C 5057.439 6999.242 5010.679 6979.653 4984.771 6965.751 C 4931.06 6936.684 4927.268 6937.947 4927.9 6992.291 C 4927.9 7011.248 4917.79 7073.806 4905.152 7131.308 C 4892.514 7188.811 4879.244 7251.369 4875.453 7270.326 C 4871.661 7289.283 4866.606 7306.344 4864.71 7308.24 C 4862.815 7310.136 4844.49 7377.749 4823.637 7459.264 C 4788.882 7599.545 4739.594 7760.68 4726.956 7777.741 C 4723.797 7782.164 4715.582 7799.857 4709.263 7816.919 C 4689.674 7870.63 4672.613 7892.746 4649.865 7894.01 C 4626.484 7895.906 4623.957 7883.9 4642.914 7859.888 C 4661.239 7835.876 4671.981 7794.17 4692.834 7655.784 C 4715.582 7506.024 4721.269 7444.098 4737.699 7188.179 C 4744.65 7078.861 4753.496 6959.432 4756.656 6922.782 C 4760.447 6886.132 4762.975 6852.009 4762.975 6846.322 C 4762.975 6841.267 4742.122 6822.942 4717.478 6805.881 C 4615.11 6738.267 4400.265 6551.857 4385.731 6518.367 C 4378.78 6503.201 4379.412 6498.146 4390.786 6484.244 C 4411.007 6458.336 4407.847 6457.704 4595.521 6535.428 C 4616.374 6544.275 4636.595 6553.753 4639.754 6556.281 C 4643.546 6558.808 4670.085 6570.814 4699.785 6582.188 C 4729.484 6592.931 4760.447 6608.096 4769.294 6614.415 C 4777.508 6621.366 4785.723 6624.526 4786.355 6621.366 C 4786.987 6618.839 4797.729 6535.428 4810.367 6436.22 C 4822.373 6337.012 4842.594 6182.197 4855.232 6091.835 C 4867.87 6001.473 4878.612 5921.854 4879.876 5914.903 C 4888.091 5844.131 4928.532 5590.739 4943.066 5516.807 C 4962.655 5415.703 4994.25 5296.906 5007.519 5271.63 C 5012.575 5260.888 5017.63 5245.091 5018.894 5236.244 C 5023.949 5192.011 5101.04 5176.214 5135.163 5212.864 C 5171.813 5252.042 5169.917 5331.029 5122.525 5715.855 C 5094.09 5947.762 5035.323 6361.656 5028.372 6376.189 C 5025.213 6383.14 5013.838 6452.649 5003.096 6531.005 C 4992.354 6609.36 4982.243 6677.605 4980.348 6682.66 C 4978.452 6690.243 4989.194 6696.562 5026.476 6707.936 C 5125.684 6738.267 5216.678 6765.439 5293.77 6786.924 C 5337.371 6798.93 5377.812 6812.2 5384.131 6815.359 C 5390.45 6819.15 5398.033 6820.414 5401.192 6818.519 C 5403.72 6816.623 5407.511 6817.255 5408.775 6820.414 C 5409.407 6822.942 5467.542 6840.635 5537.051 6858.96 C 5689.971 6900.034 5808.768 6936.684 5845.418 6953.113 C 5859.952 6960.064 5901.657 6977.757 5938.307 6992.291 C 6007.184 7020.094 6115.871 7072.542 6121.558 7080.757 C 6123.454 7083.284 6144.938 7097.818 6168.95 7112.352 C 6285.852 7183.124 6438.139 7342.995 6471.63 7430.197 C 6477.949 7446.626 6484.9 7459.896 6488.059 7459.896 C 6491.219 7459.896 6499.433 7477.589 6506.384 7499.705 C 6553.777 7643.146 6556.936 7801.753 6516.495 7996.378 C 6496.274 8091.795 6457.096 8227.653 6443.826 8246.61 C 6441.931 8250.401 6429.924 8276.941 6418.55 8306.64 C 6392.642 8373.621 6333.244 8498.105 6322.502 8509.48 C 6317.447 8514.535 6305.44 8532.86 6295.962 8549.921 C 6280.164 8577.093 6237.827 8635.228 6211.288 8666.822 C 6204.337 8674.405 6203.705 8675.037 6207.496 8666.822 C 6210.024 8661.767 6196.754 8671.878 6177.797 8689.571 C 6134.828 8730.644 6040.675 8793.202 5995.178 8810.895 C 5883.332 8855.128 5734.836 8866.502 5580.02 8843.754 Z" style="fill: rgb(191, 23, 159); paint-order: fill;"/>
    </g>
</svg>
