<svg viewBox="0 0 24 24" xmlns="http://www.w3.org/2000/svg">
    <defs/>
    <linearGradient id="nKEdfJkkRaIvB5Lr2l9FSa" x1="31.877" x2="32.127" y1="5.753" y2="59.003" gradientUnits="userSpaceOnUse" spreadMethod="reflect" gradientTransform="matrix(0.411018, 0, 0, 0.411018, -1.152544, -1.151462)">
        <stop offset="0" stop-color="#1a6dff"/>
        <stop offset="1" stop-color="#c822ff"/>
    </linearGradient>
    <path
            fill="url(#nKEdfJkkRaIvB5Lr2l9FSa)"
            d="M 12 23.577 C 8.871 23.577 5.865 22.23 3.818 20.183 C 1.771 18.136 0.423 15.13 0.423 12.001 C 0.423 8.872 1.771 5.865 3.818 3.818 C 5.865 1.771 8.871 0.423 12 0.423 C 15.129 0.423 18.135 1.771 20.183 3.818 C 22.229 5.866 23.577 8.872 23.577 12.001 C 23.577 15.13 22.229 18.136 20.183 20.183 C 18.135 22.23 15.129 23.577 12 23.577 Z M 18.342 5.658 C 16.668 3.983 14.537 3.025 12 3.025 C 9.463 3.025 7.331 3.983 5.658 5.658 C 3.983 7.331 3.025 9.463 3.025 12.001 C 3.025 14.538 3.983 16.668 5.658 18.343 C 7.331 20.017 9.463 20.975 12 20.975 C 14.537 20.975 16.668 20.017 18.342 18.343 C 20.017 16.668 20.975 14.538 20.975 12.001 C 20.975 9.463 20.017 7.331 18.342 5.658 Z"
            style="stroke: rgb(0, 0, 0); stroke-width: 0.5px"
    />
    <linearGradient id="nKEdfJkkRaIvB5Lr2l9FSb" x1="32" x2="32" y1="10" y2="53.546" gradientUnits="userSpaceOnUse" spreadMethod="reflect" gradientTransform="matrix(0.257623, 0, 0, 0.257623, 3.756242, 3.757223)">
        <stop offset="0" stop-color="#6dc7ff"/>
        <stop offset="1" stop-color="#e6abff"/>
    </linearGradient>
    <path fill="url(#nKEdfJkkRaIvB5Lr2l9FSb)"
          d="M 12.001 18.31 C 10.306 18.31 8.648 17.567 7.541 16.46 C 6.434 15.354 5.691 13.695 5.691 12.001 C 5.691 10.311 6.432 8.656 7.541 7.541 C 8.655 6.43 10.31 5.691 12.001 5.691 C 13.691 5.691 15.346 6.432 16.46 7.541 C 17.569 8.656 18.31 10.311 18.31 12.001 C 18.31 13.695 17.567 15.354 16.46 16.46 C 15.354 17.567 13.695 18.31 12.001 18.31 Z M 15.189 8.812 C 14.331 7.959 13.286 7.489 12.001 7.489 C 10.711 7.489 9.649 7.945 8.812 8.812 C 7.945 9.649 7.489 10.711 7.489 12.001 C 7.489 13.286 7.959 14.331 8.812 15.188 C 9.67 16.042 10.716 16.512 12.001 16.512 C 13.286 16.512 14.33 16.047 15.189 15.189 C 16.042 14.331 16.512 13.286 16.512 12.001 C 16.512 10.716 16.043 9.67 15.189 8.812 Z"
          style="stroke: rgb(0, 0, 0); stroke-width: 0.5px"/>
</svg>