<svg viewBox="0 0 100 100" preserveAspectRatio="xMidYMid slice" xmlns="http://www.w3.org/2000/svg">
    <defs>
        <linearGradient gradientUnits="userSpaceOnUse" x1="39.251" y1="19.233" x2="39.251" y2="32.692" id="gradient-1">
            <stop offset="0" style="stop-color: #bada55"></stop>
            <stop offset="1" style="stop-color: #758d29"></stop>
        </linearGradient>
        <radialGradient gradientUnits="userSpaceOnUse" cx="39.251" cy="25.963" r="12.674" id="gradient-0">
            <stop offset="0" style="stop-color: #bada55"></stop>
            <stop offset="1" style="stop-color: #758d29"></stop>
        </radialGradient>
    </defs>
    <linearGradient id="tXu54Kp6YqZVIlGnJHOxOa" x1="32" x2="32" y1="38.5" y2="45.502" gradientUnits="userSpaceOnUse" spreadMethod="reflect" gradientTransform="matrix(1.923075, 0, 0, 1.923075, -11.538458, -11.538458)">
        <stop offset="0" stop-color="#6dc7ff"></stop>
        <stop offset="1" stop-color="#e6abff"></stop>
    </linearGradient>
    <path fill="url(#tXu54Kp6YqZVIlGnJHOxOa)" d="M 40.592 63.458 C 39.408 63.458 38.45 64.525 38.675 65.683 C 39.717 70.992 44.392 75 50 75 C 55.608 75 60.283 70.992 61.325 65.683 C 61.55 64.525 60.592 63.458 59.408 63.458 L 40.592 63.458 Z" style="stroke-width: 0.5px; stroke: rgb(0, 0, 0);"></path>
    <linearGradient id="tXu54Kp6YqZVIlGnJHOxOb" x1="32" x2="32" y1="5.333" y2="58.718" gradientUnits="userSpaceOnUse" spreadMethod="reflect" gradientTransform="matrix(1.923075, 0, 0, 1.923075, -11.538458, -11.538458)">
        <stop offset="0" stop-color="#1a6dff"></stop>
        <stop offset="1" stop-color="#c822ff"></stop>
    </linearGradient>
    <path fill="url(#tXu54Kp6YqZVIlGnJHOxOb)" d="M 50 11.542 C 28.792 11.542 11.542 28.792 11.542 50 C 11.542 71.208 28.792 88.458 50 88.458 C 71.208 88.458 88.458 71.208 88.458 50 C 88.458 28.792 71.208 11.542 50 11.542 Z M 50 84.617 C 30.917 84.617 15.383 69.083 15.383 50 C 15.383 30.917 30.917 15.383 50 15.383 C 69.083 15.383 84.617 30.917 84.617 50 C 84.617 69.083 69.083 84.617 50 84.617 Z" style="stroke-width: 0.5px; stroke: rgb(0, 0, 0);"></path>
    <linearGradient id="tXu54Kp6YqZVIlGnJHOxOc" x1="32" x2="32" y1="5.333" y2="58.718" gradientUnits="userSpaceOnUse" spreadMethod="reflect" gradientTransform="matrix(1.923075, 0, 0, 1.923075, -11.538458, -11.538458)">
        <stop offset="0" stop-color="#1a6dff"></stop>
        <stop offset="1" stop-color="#c822ff"></stop>
    </linearGradient>
    <path fill="url(#tXu54Kp6YqZVIlGnJHOxOc)" d="M 57.692 40.383 C 55.575 40.383 53.85 42.308 53.85 44.233 L 46.15 44.233 C 46.15 42.308 44.425 40.383 42.308 40.383 L 23.075 40.383 C 20.958 40.383 19.233 42.108 19.233 44.233 L 19.233 48.075 C 19.233 54.442 24.408 59.617 30.767 59.617 L 34.617 59.617 C 40.975 59.617 46.15 54.442 46.15 48.075 L 53.85 48.075 C 53.85 54.442 59.025 59.617 65.383 59.617 L 69.233 59.617 C 75.592 59.617 80.767 54.442 80.767 48.075 L 80.767 44.233 C 80.767 42.108 79.042 40.383 76.925 40.383 L 57.692 40.383 Z M 42.308 48.075 C 42.308 52.317 38.858 55.767 34.617 55.767 L 30.767 55.767 C 26.525 55.767 23.075 52.317 23.075 48.075 L 23.075 44.233 L 26.125 44.233 L 25.567 44.792 C 24.808 45.55 24.808 46.758 25.567 47.517 C 25.942 47.892 26.433 48.075 26.925 48.075 C 27.417 48.075 27.908 47.892 28.283 47.517 L 31.567 44.233 L 35.742 44.233 L 31.333 48.642 C 30.583 49.392 30.583 50.608 31.333 51.358 C 31.708 51.733 32.2 51.925 32.692 51.925 C 33.183 51.925 33.675 51.733 34.05 51.358 L 41.183 44.233 L 42.308 44.233 L 42.308 48.075 Z M 76.925 48.075 C 76.925 52.317 73.475 55.767 69.233 55.767 L 65.383 55.767 C 61.142 55.767 57.692 52.317 57.692 48.075 L 57.692 44.233 L 60.742 44.233 L 60.175 44.792 C 59.425 45.55 59.425 46.758 60.175 47.517 C 60.55 47.892 61.05 48.075 61.542 48.075 C 62.033 48.075 62.525 47.892 62.9 47.517 L 66.183 44.233 L 70.358 44.233 L 65.95 48.642 C 65.2 49.392 65.2 50.608 65.95 51.358 C 66.325 51.733 66.817 51.925 67.308 51.925 C 67.8 51.925 68.292 51.733 68.667 51.358 L 75.8 44.233 L 76.925 44.233 L 76.925 48.075 Z" style="stroke-width: 0.5px; stroke: rgb(0, 0, 0);"></path>
    <linearGradient id="tXu54Kp6YqZVIlGnJHOxOd" x1="26.409" x2="26.409" y1="5.333" y2="58.718" gradientUnits="userSpaceOnUse" spreadMethod="reflect" gradientTransform="matrix(1.923075, 0, 0, 1.923075, -11.538458, -11.538458)">
        <stop offset="0" stop-color="#1a6dff"></stop>
        <stop offset="1" stop-color="#c822ff"></stop>
    </linearGradient>
    <path fill="url(#tXu54Kp6YqZVIlGnJHOxOd)" d="M 28.5 32.692 C 29.025 32.692 29.55 32.475 29.933 32.05 C 35.042 26.35 42.35 23.075 50 23.075 C 51.058 23.075 51.925 22.217 51.925 21.15 C 51.925 20.092 51.058 19.233 50 19.233 C 41.258 19.233 32.9 22.967 27.067 29.483 C 26.358 30.275 26.425 31.492 27.217 32.2 C 27.583 32.533 28.042 32.692 28.5 32.692 Z" style="stroke-width: 0.5px; paint-order: fill; stroke: rgb(0, 0, 0);"></path>
    <linearGradient id="tXu54Kp6YqZVIlGnJHOxOe" x1="32" x2="32" y1="5.333" y2="58.718" gradientUnits="userSpaceOnUse" spreadMethod="reflect" gradientTransform="matrix(1.923075, 0, 0, 1.923075, -11.538458, -11.538458)">
        <stop offset="0" stop-color="#1a6dff"></stop>
        <stop offset="1" stop-color="#c822ff"></stop>
    </linearGradient>
    <path d="M 100 50 C 100 46.325 97.675 42.758 93.567 40.067 C 94.008 37.583 93.75 35.075 92.792 32.708 C 91.775 30.183 90.017 28.042 87.758 26.55 C 88.85 21.65 87.983 17.275 85.358 14.65 C 82.725 12.017 78.35 11.158 73.45 12.242 C 71.958 9.992 69.817 8.225 67.292 7.208 C 64.925 6.25 62.417 5.992 59.942 6.433 C 57.242 2.325 53.675 0 50 0 C 46.325 0 42.758 2.325 40.067 6.433 C 37.583 5.992 35.067 6.25 32.708 7.208 C 30.192 8.225 28.033 9.992 26.542 12.242 C 21.642 11.15 17.275 12.017 14.642 14.642 C 12.017 17.275 11.15 21.65 12.242 26.55 C 9.983 28.042 8.225 30.183 7.208 32.708 C 6.25 35.075 5.992 37.583 6.433 40.058 C 2.325 42.758 0 46.325 0 50 C 0 53.675 2.325 57.242 6.433 59.933 C 5.992 62.417 6.25 64.925 7.208 67.292 C 8.225 69.817 9.983 71.958 12.242 73.45 C 11.15 78.35 12.017 82.725 14.642 85.35 C 17.275 87.983 21.658 88.85 26.55 87.75 C 28.042 90.008 30.192 91.775 32.708 92.792 C 35.075 93.75 37.583 94.008 40.058 93.567 C 42.758 97.675 46.325 100 50 100 C 53.675 100 57.242 97.675 59.933 93.567 C 62.417 94.008 64.933 93.75 67.292 92.792 C 69.808 91.775 71.95 90.017 73.45 87.758 C 78.35 88.85 82.725 87.983 85.35 85.358 C 87.983 82.725 88.842 78.35 87.758 73.45 C 90.008 71.958 91.775 69.817 92.792 67.292 C 93.742 64.925 94.008 62.417 93.567 59.942 C 97.675 57.242 100 53.675 100 50 Z M 90.433 57.35 C 89.658 57.783 89.283 58.7 89.533 59.558 C 90.15 61.658 90.042 63.833 89.225 65.85 C 88.358 67.992 86.742 69.758 84.658 70.808 C 83.833 71.225 83.425 72.183 83.683 73.075 C 84.908 77.183 84.508 80.758 82.633 82.633 C 80.758 84.517 77.183 84.908 73.067 83.683 C 72.183 83.425 71.225 83.833 70.808 84.658 C 69.75 86.742 67.992 88.358 65.85 89.225 C 63.833 90.042 61.658 90.15 59.558 89.533 C 58.7 89.275 57.783 89.658 57.35 90.433 C 55.317 94.017 52.567 96.15 50 96.15 C 47.433 96.15 44.683 94.017 42.65 90.433 C 42.3 89.817 41.658 89.458 40.983 89.458 C 40.8 89.458 40.617 89.483 40.442 89.533 C 38.342 90.15 36.167 90.042 34.15 89.225 C 32.008 88.358 30.242 86.733 29.192 84.658 C 28.767 83.833 27.808 83.425 26.925 83.683 C 22.817 84.908 19.242 84.517 17.367 82.633 C 15.483 80.758 15.092 77.183 16.308 73.067 C 16.575 72.175 16.167 71.225 15.333 70.808 C 13.258 69.75 11.642 67.992 10.775 65.85 C 9.958 63.833 9.85 61.658 10.467 59.558 C 10.717 58.7 10.342 57.783 9.567 57.35 C 5.983 55.317 3.85 52.567 3.85 50 C 3.85 47.433 5.983 44.683 9.567 42.65 C 10.342 42.217 10.717 41.3 10.467 40.442 C 9.85 38.342 9.958 36.167 10.775 34.15 C 11.642 32.008 13.258 30.242 15.342 29.192 C 16.167 28.775 16.575 27.817 16.317 26.925 C 15.092 22.817 15.492 19.242 17.367 17.367 C 19.242 15.483 22.817 15.092 26.933 16.308 C 27.833 16.575 28.783 16.158 29.2 15.325 L 29.308 15.1 C 30.367 13.142 32.092 11.608 34.15 10.775 C 36.175 9.958 38.35 9.85 40.442 10.467 C 41.3 10.717 42.217 10.342 42.658 9.567 C 44.683 5.983 47.433 3.85 50 3.85 C 52.567 3.85 55.317 5.983 57.35 9.567 C 57.783 10.342 58.7 10.717 59.558 10.467 C 61.658 9.85 63.833 9.958 65.85 10.775 C 67.992 11.642 69.758 13.258 70.808 15.342 C 71.225 16.167 72.167 16.575 73.075 16.317 C 77.183 15.1 80.758 15.483 82.633 17.367 C 84.517 19.242 84.908 22.817 83.692 26.933 C 83.425 27.825 83.833 28.775 84.667 29.192 C 86.742 30.25 88.358 32.008 89.225 34.15 C 90.042 36.167 90.15 38.342 89.533 40.442 C 89.283 41.3 89.658 42.217 90.433 42.65 C 94.017 44.683 96.15 47.433 96.15 50 C 96.15 52.567 94.017 55.317 90.433 57.35 Z" style="filter: none; stroke-width: 0.5px; stroke: rgb(0, 0, 0);" fill="url(#tXu54Kp6YqZVIlGnJHOxOe)"></path>
</svg>