<svg xmlns="http://www.w3.org/2000/svg" viewBox="0 0 50 50" width="50" height="50" preserveAspectRatio="xMidYMid meet" style="width: 100%; height: 100%; transform: translate3d(0px, 0px, 0px);">
    <defs>
        <clipPath id="__lottie_element_2">
            <rect width="50" height="50" x="0" y="0"/>
        </clipPath>
    </defs>
    <g clip-path="url(#__lottie_element_2)">
        <g transform="matrix(-1,0,0,-1,50,69)" opacity="1" style="display: block;">
            <g opacity="1" transform="matrix(1,0,0,1,0,0)">
                <path stroke-linecap="round" stroke-linejoin="round" fill-opacity="0" stroke="rgb(0,0,0)" stroke-opacity="1" stroke-width="2" d=" M25,26 C25,26 25,45.667999267578125 25,45.667999267578125"/>
            </g>
        </g>
        <g transform="matrix(-1,0,0,-1,50,69)" opacity="1" style="display: block;">
            <g opacity="1" transform="matrix(1,0,0,1,22.5,43.5)">
                <path stroke-linecap="round" stroke-linejoin="round" fill-opacity="0" stroke="rgb(0,0,0)" stroke-opacity="1" stroke-width="2" d=" M2.5,2.5 C2.5,2.5 -2.5,-2.5 -2.5,-2.5"/>
            </g>
            <g opacity="1" transform="matrix(1,0,0,1,27.5,43.5)">
                <path stroke-linecap="round" stroke-linejoin="round" fill-opacity="0" stroke="rgb(0,0,0)" stroke-opacity="1" stroke-width="2" d=" M2.5,-2.5 C2.5,-2.5 -2.5,2.5 -2.5,2.5"/>
            </g>
        </g>
        <g transform="matrix(1,0,0,1,0,0)" opacity="1" style="display: block;">
            <g opacity="1" transform="matrix(1,0,0,1,25,20)">
                <path stroke-linecap="round" stroke-linejoin="round" fill-opacity="0" stroke="rgb(0,0,0)" stroke-opacity="1" stroke-width="2" d=" M7,15 C7,15 14.01200008392334,15 14.01200008392334,15 C18.635000228881836,15 21.972999572753906,11.4399995803833 21.999000549316406,7 C22.025999069213867,2.431999921798706 18.16699981689453,-0.43799999356269836 15.734000205993652,-0.8069999814033508 C15.734000205993652,-0.8069999814033508 15.907999992370605,-1.4769999980926514 15.932999610900879,-1.5820000171661377 C15.958000183105469,-1.687000036239624 16.003000259399414,-2.496999979019165 16.003000259399414,-2.496999979019165 C15.875,-6.458000183105469 12.666999816894531,-8 10.50100040435791,-8 C8.145000457763672,-8 6.395999908447266,-6.354000091552734 6.290999889373779,-6.035999774932861 C5.541999816894531,-8.729000091552734 1.687000036239624,-14.038000106811523 -4.994999885559082,-14.001999855041504 C-13.229000091552734,-13.958000183105469 -17.375,-6.540999889373779 -16.964000701904297,-1.25600004196167 C-20.25,0.16699999570846558 -21.958999633789062,3.3340001106262207 -21.999000549316406,6.504000186920166 C-22.05900001525879,11.208000183105469 -18.25200080871582,14.987000465393066 -13.50100040435791,15 C-13.50100040435791,15 -7,15 -7,15"/>
            </g>
        </g>
    </g>
</svg>